<svg width="100" height="100" viewBox="0 0 100 100" fill="none" xmlns="http://www.w3.org/2000/svg">
<circle cx="50" cy="50" r="50" fill="#5F5F5F" fill-opacity="0.2"/>
<path d="M65.2083 41.5001V52.2293C65.2083 58.646 61.5417 61.3959 56.0417 61.3959H37.7292C36.7917 61.3959 35.8958 61.3127 35.0625 61.1252C34.5417 61.0418 34.0417 60.896 33.5833 60.7293C30.4583 59.5627 28.5625 56.8543 28.5625 52.2293V41.5001C28.5625 35.0834 32.2292 32.3335 37.7292 32.3335H56.0417C60.7083 32.3335 64.0625 34.3127 64.9583 38.8335C65.1042 39.6668 65.2083 40.5209 65.2083 41.5001Z" stroke="#00C4F4" stroke-width="1.5" stroke-miterlimit="10" stroke-linecap="round" stroke-linejoin="round"/>
<path d="M71.4603 47.7506V58.4798C71.4603 64.8965 67.7936 67.6464 62.2936 67.6464H43.9811C42.4395 67.6464 41.0436 67.4382 39.8353 66.9798C37.3561 66.0632 35.6686 64.1673 35.0645 61.1257C35.8978 61.3132 36.7936 61.3964 37.7311 61.3964H56.0436C61.5436 61.3964 65.2103 58.6465 65.2103 52.2298V41.5006C65.2103 40.5214 65.127 39.6465 64.9603 38.834C68.9186 39.6673 71.4603 42.4589 71.4603 47.7506Z" stroke="#00C4F4" stroke-width="1.5" stroke-miterlimit="10" stroke-linecap="round" stroke-linejoin="round"/>
<path d="M46.8711 52.3751C49.9087 52.3751 52.3712 49.9126 52.3712 46.875C52.3712 43.8375 49.9087 41.375 46.8711 41.375C43.8336 41.375 41.3711 43.8375 41.3711 46.875C41.3711 49.9126 43.8336 52.3751 46.8711 52.3751Z" stroke="#00C4F4" stroke-width="1.5" stroke-miterlimit="10" stroke-linecap="round" stroke-linejoin="round"/>
<path d="M34.959 42.292V51.4587" stroke="#00C4F4" stroke-width="1.5" stroke-miterlimit="10" stroke-linecap="round" stroke-linejoin="round"/>
<path d="M58.7949 42.2925V51.4592" stroke="#00C4F4" stroke-width="1.5" stroke-miterlimit="10" stroke-linecap="round" stroke-linejoin="round"/>
</svg>
