<svg width="100" height="100" viewBox="0 0 100 100" fill="none" xmlns="http://www.w3.org/2000/svg">
<circle cx="50" cy="50" r="50" fill="#5F5F5F" fill-opacity="0.2"/>
<path d="M29.166 29.1665H32.791C35.041 29.1665 36.8119 31.104 36.6244 33.3332L34.8952 54.0832C34.6035 57.479 37.291 60.3957 40.7077 60.3957H62.8952C65.8952 60.3957 68.5202 57.9373 68.7493 54.9582L69.8743 39.3332C70.1243 35.8748 67.4993 33.0623 64.0202 33.0623H37.1244" stroke="#00C4F4" stroke-width="1.5" stroke-miterlimit="10" stroke-linecap="round" stroke-linejoin="round"/>
<path d="M58.8542 70.8333C60.2924 70.8333 61.4583 69.6674 61.4583 68.2292C61.4583 66.7909 60.2924 65.625 58.8542 65.625C57.4159 65.625 56.25 66.7909 56.25 68.2292C56.25 69.6674 57.4159 70.8333 58.8542 70.8333Z" stroke="#00C4F4" stroke-width="1.5" stroke-miterlimit="10" stroke-linecap="round" stroke-linejoin="round"/>
<path d="M42.1882 70.8333C43.6264 70.8333 44.7923 69.6674 44.7923 68.2292C44.7923 66.7909 43.6264 65.625 42.1882 65.625C40.7499 65.625 39.584 66.7909 39.584 68.2292C39.584 69.6674 40.7499 70.8333 42.1882 70.8333Z" stroke="#00C4F4" stroke-width="1.5" stroke-miterlimit="10" stroke-linecap="round" stroke-linejoin="round"/>
<path d="M43.75 41.6667H68.75" stroke="#00C4F4" stroke-width="1.5" stroke-miterlimit="10" stroke-linecap="round" stroke-linejoin="round"/>
</svg>
