<svg width="100" height="100" viewBox="0 0 100 100" fill="none" xmlns="http://www.w3.org/2000/svg">
<circle cx="50" cy="50" r="49.5" fill="#5F5F5F" fill-opacity="0.2" stroke="#353535"/>
<path d="M62.584 53.2293C61.709 54.0835 61.209 55.3126 61.334 56.6251C61.5215 58.8751 63.584 60.521 65.834 60.521H69.7923V63.0001C69.7923 67.3126 66.2715 70.8335 61.959 70.8335H38.0423C33.7298 70.8335 30.209 67.3126 30.209 63.0001V48.9793C30.209 44.6668 33.7298 41.146 38.0423 41.146H61.959C66.2715 41.146 69.7923 44.6668 69.7923 48.9793V51.9794H65.584C64.4173 51.9794 63.3548 52.4376 62.584 53.2293Z" stroke="#00C4F4" stroke-width="1.5" stroke-linecap="round" stroke-linejoin="round"/>
<path d="M30.209 50.8542V41.3335C30.209 38.8543 31.7298 36.6459 34.0423 35.7709L50.584 29.5209C53.1673 28.5417 55.9382 30.4585 55.9382 33.2293V41.1459" stroke="#00C4F4" stroke-width="1.5" stroke-linecap="round" stroke-linejoin="round"/>
<path d="M71.9982 54.1044V58.3962C71.9982 59.542 71.0815 60.4794 69.9148 60.5211H65.8315C63.5815 60.5211 61.519 58.8753 61.3315 56.6253C61.2065 55.3128 61.7065 54.0836 62.5815 53.2294C63.3523 52.4378 64.4148 51.9795 65.5815 51.9795H69.9148C71.0815 52.0212 71.9982 52.9586 71.9982 54.1044Z" stroke="#00C4F4" stroke-width="1.5" stroke-linecap="round" stroke-linejoin="round"/>
<path d="M39.584 50H54.1673" stroke="#00C4F4" stroke-width="1.5" stroke-linecap="round" stroke-linejoin="round"/>
</svg>
